<?xml version="1.0" encoding="UTF-8" standalone="no"?>
<!-- Created with Inkscape (http://www.inkscape.org/) -->

<svg
   width="420.0mm"
   height="297.0mm"
   viewBox="0 0 420.0 297.0"
   version="1.1"
   id="SVGRoot"
   sodipodi:docname="C:\Users\Aluno\AppData\Local\Temp\ink_ext_XXXXXX.svgREOIT1"
   inkscape:version="1.2.1 (9c6d41e410, 2022-07-14)"
   xmlns:inkscape="http://www.inkscape.org/namespaces/inkscape"
   xmlns:sodipodi="http://sodipodi.sourceforge.net/DTD/sodipodi-0.dtd"
   xmlns="http://www.w3.org/2000/svg"
   xmlns:svg="http://www.w3.org/2000/svg">
  <sodipodi:namedview
     id="namedview8211"
     pagecolor="#ffffff"
     bordercolor="#000000"
     borderopacity="0.25"
     inkscape:showpageshadow="2"
     inkscape:pageopacity="0.0"
     inkscape:pagecheckerboard="0"
     inkscape:deskcolor="#d1d1d1"
     inkscape:document-units="mm"
     showgrid="false"
     inkscape:zoom="0.55244701"
     inkscape:cx="717.71589"
     inkscape:cy="548.46889"
     inkscape:window-width="1920"
     inkscape:window-height="1057"
     inkscape:window-x="-8"
     inkscape:window-y="-8"
     inkscape:window-maximized="1"
     inkscape:current-layer="layer1" />
  <defs
     id="defs8206" />
  <g
     inkscape:label="Camada 1"
     inkscape:groupmode="layer"
     id="layer1">
    <g
       id="g7991"
       transform="matrix(3.3428723,0,0,3.3428723,-77.156152,-172.67673)">
      <path
         style="opacity:1;fill:#0a0045;fill-opacity:1;stroke:none;stroke-width:0.0423317;stroke-opacity:1"
         d="m 59.60319,115.71266 c -3.028273,-0.20852 -5.836187,-1.06935 -7.946551,-2.4362 -1.174306,-0.76057 -3.006728,-2.42971 -3.90229,-3.55456 -0.902697,-1.13382 -1.63019,-2.37745 -2.140743,-3.65955 -0.625412,-1.57052 -1.016881,-3.46274 -1.017006,-4.91584 l -3.7e-5,-0.4075 1.894348,-0.0288 c 1.041892,-0.0159 2.932539,-0.0465 4.201433,-0.0681 1.268896,-0.0216 2.564251,-0.0393 2.878563,-0.0394 l 0.571481,-1.7e-4 0.148162,0.40967 c 0.08149,0.22532 0.290115,0.69658 0.463619,1.04725 0.1735,0.35067 0.313758,0.66119 0.311684,0.69004 -0.0021,0.0289 0.01635,0.04 0.04097,0.0248 0.02816,-0.0174 0.03441,-8e-4 0.01688,0.045 -0.01535,0.0399 -0.0109,0.0622 0.0098,0.0493 0.04681,-0.0289 0.225163,0.26505 0.192685,0.3176 -0.01299,0.021 -0.0016,0.0793 0.02521,0.12947 0.03384,0.0632 0.05844,0.0757 0.0801,0.0407 0.02143,-0.0347 0.05385,-0.0161 0.10304,0.059 0.03948,0.0603 0.06005,0.12854 0.04571,0.15174 -0.01434,0.0232 -0.0032,0.0369 0.02469,0.0305 0.02792,-0.006 0.06039,0.0149 0.07214,0.0472 0.01434,0.0394 0.0035,0.0477 -0.033,0.0252 -0.03592,-0.0222 -0.04397,-0.0168 -0.02373,0.016 0.01685,0.0273 0.0457,0.0403 0.06412,0.0289 0.01841,-0.0114 0.157901,0.13629 0.309954,0.32816 0.381225,0.48105 1.080135,1.14265 1.536126,1.45413 0.902772,0.61666 1.761826,0.93095 2.826562,1.0341 0.638858,0.0619 1.274027,0.008 2.257158,-0.19035 0.900343,-0.18195 1.143709,-0.24307 1.730047,-0.43452 1.533999,-0.50086 2.534891,-1.28532 2.872674,-2.25151 0.05147,-0.14721 0.09054,-0.39484 0.102314,-0.64835 0.06323,-1.36165 -0.773835,-2.60924 -2.530504,-3.771538 -1.298472,-0.85913 -3.063414,-1.47385 -5.011473,-1.74546 -0.944798,-0.13173 -2.711637,-0.6635 -4.068701,-1.22456 -0.859412,-0.35531 -2.678901,-1.25536 -3.544245,-1.75322 -0.366125,-0.21065 -1.070948,-0.63472 -1.566277,-0.94239 l -0.900595,-0.55939 -0.850159,-0.85008 c -1.139314,-1.13921 -1.866087,-2.02866 -2.560185,-3.13324 -2.84712,-4.53091 -2.395233,-9.488059 1.284211,-14.08763 0.495086,-0.618895 1.562571,-1.698623 1.914475,-1.936433 1.459807,-0.986509 3.188094,-1.898189 4.677664,-2.467496 2.055177,-0.785476 3.804192,-1.147143 5.820624,-1.203608 2.42271,-0.06784 4.634193,0.386051 7.027082,1.442265 2.607233,1.150824 5.417264,3.333853 7.286233,5.660466 0.385644,0.480074 0.905031,1.253012 0.90482,1.346526 -8.5e-5,0.04492 -0.244814,0.19123 -0.730224,0.436605 -0.40154,0.202977 -2.301639,1.178686 -4.222446,2.168236 l -3.492375,1.799179 -0.08131,-0.11514 c -0.154218,-0.21837 -0.601239,-0.63264 -1.000207,-0.926929 -1.466183,-1.08148 -3.225641,-1.85073 -4.929598,-2.15526 -0.638291,-0.11408 -1.887884,-0.10588 -2.455246,0.0161 -1.157586,0.24888 -1.996246,0.68964 -2.82403,1.48417 -0.393697,0.37787 -0.839303,0.922129 -1.112565,1.358869 -0.114366,0.18278 -0.117133,0.20111 -0.09269,0.61381 0.06346,1.0714 0.54093,2.03294 1.432354,2.88453 0.426095,0.40705 0.885042,0.7389 1.263475,0.91358 1.594506,0.73599 5.636736,2.09994 10.074973,3.39955 0.663552,0.1943 1.260973,0.37433 1.327606,0.40005 0.189198,0.073 1.186484,0.66155 1.677953,0.99018 0.552558,0.36948 1.245084,0.88751 1.7991,1.34579 0.617323,0.51064 1.884815,1.7969 2.375906,2.41109 1.748885,2.18725 2.684613,4.51302 2.803741,6.968758 0.03814,0.78611 -0.0049,1.83001 -0.07722,1.87473 -0.02692,0.0166 -0.06652,0.2189 -0.088,0.44947 -0.207846,2.23055 -0.997048,4.18922 -2.394807,5.94353 -0.387967,0.48693 -1.424406,1.5183 -1.938798,1.92931 -1.600187,1.2786 -3.467317,2.29403 -5.447702,2.96274 -0.871863,0.29439 -2.344989,0.55898 -3.995804,0.71767 -0.826481,0.0795 -2.722052,0.11298 -3.471209,0.0614 z"
         id="path7212" />
      <path
         style="opacity:1;fill:#794cff;fill-opacity:1;stroke-width:0.264583"
         d="M 80.642103,69.424172 V 115.81984 H 90.54775 V 69.339508 Z"
         id="path356" />
      <path
         style="opacity:1;fill:#0a0045;fill-opacity:1;stroke-width:0.264583"
         d="m 90.60079,84.628272 26.70034,31.100498 V 100.74971 L 90.59008,69.318342 Z"
         id="path358" />
      <path
         style="opacity:1;fill:#794cff;fill-opacity:1;stroke-width:0.264583"
         d="m 117.30145,69.466506 v 46.395674 h 9.90565 V 69.381836 Z"
         id="path356-2" />
      <path
         style="opacity:1;fill:#794cff;fill-opacity:1;stroke-width:0.264583"
         d="m 80.642103,119.18521 v 6.16987 H 90.5795 v -6.16987 z"
         id="path4628" />
      <path
         style="opacity:1;fill:none;fill-opacity:1;stroke:none;stroke-width:0.264583;stroke-opacity:1"
         d="m 68.418792,89.944522 c -9.693985,-2.7939 -11.694163,-3.92628 -11.694163,-3.92628 -2.709236,-1.7356 -2.347911,-3.99034 -2.347911,-3.99034 4.096549,-6.757206 12.786547,-0.15724 12.253554,0.3498 l 8.720355,-4.487167 c 0.318933,-0.358157 -10.370284,-15.64278 -26.161061,-4.825828 0,0 -11.21793,9.397665 0.380987,19.980615"
         id="path4630"
         sodipodi:nodetypes="ccccccc" />
      <path
         style="opacity:1;fill:none;fill-opacity:1;stroke:none;stroke-width:0.264583;stroke-opacity:1"
         d="m 54.184719,100.36873 c 0,0 2.035816,7.3264 8.258594,5.88712"
         id="path4686"
         sodipodi:nodetypes="cc" />
      <path
         style="opacity:1;fill:none;fill-opacity:1;stroke:none;stroke-width:0.264583;stroke-opacity:1"
         d="m 54.322297,100.47456 -9.831561,0.14815 c 0,0 -0.550314,6.73077 5.672462,11.64126 0,0 5.164481,5.41847 16.382412,2.96322 0.253991,-0.0847 10.032639,-2.70923 10.455958,-11.59891"
         id="path4688"
         sodipodi:nodetypes="ccccc" />
      <path
         style="opacity:1;fill:none;fill-opacity:1;stroke:none;stroke-width:0.264583;stroke-opacity:1"
         d="m 62.40637,106.26039 c 0.209534,-0.0599 6.507886,-0.81364 4.382634,-4.94441 0,0 -1.64632,-3.053178 -7.243812,-3.741638"
         id="path5514"
         sodipodi:nodetypes="ccc" />
    </g>
  </g>
</svg>
